<svg width="380" height="72" viewBox="0 0 380 72" fill="none" xmlns="http://www.w3.org/2000/svg">
  <!-- Planet logo -->
  <g transform="translate(0, 8) scale(1.9)">
    <path fill-rule="evenodd" clip-rule="evenodd" d="M42.6101 15C42.6101 17.6106 41.9432 20.0654 40.7705 22.2033C36.2677 21.687 31.11 20.7014 25.7059 19.2533C22.9812 18.5233 20.3695 17.7227 17.9166 16.8771L17.9163 16.8764C17.9077 16.8736 17.899 16.8708 17.8904 16.868C17.784 16.8313 17.6779 16.7945 17.572 16.7576C14.7743 15.7232 12.9637 13.3303 13.1614 10.9586L13.1959 10.9678L13.1665 10.9384C14.9375 4.62749 20.7334 0 27.6101 0C35.8944 0 42.6101 6.71573 42.6101 15Z" fill="#8A63D2"/>
    <path fill-rule="evenodd" clip-rule="evenodd" d="M13.1218 18.8969C14.3317 18.0588 15.9453 17.6753 17.621 17.9096C20.1044 18.7407 22.7212 19.5298 25.4366 20.2574C30.6185 21.6459 35.6014 22.661 40.1075 23.2981C37.4198 27.3373 32.826 29.9992 27.6104 29.9992C20.6743 29.9992 14.8378 25.2914 13.1218 18.8969Z" fill="#8A63D2"/>
    <path fill-rule="evenodd" clip-rule="evenodd" d="M47.7637 14.6885C46.1845 13.8352 44.3596 12.9735 42.336 12.129C42.2411 11.639 42.1222 11.1575 41.9808 10.6857C44.365 11.6504 46.5059 12.6449 48.3341 13.6327C50.6138 14.8644 52.4377 16.1016 53.6405 17.2777C54.8031 18.4144 55.5611 19.6703 55.2339 20.8915C54.9067 22.1126 53.6223 22.8213 52.0471 23.2244C50.4173 23.6415 48.2192 23.8011 45.6291 23.7279C43.9542 23.6806 42.1012 23.5354 40.1109 23.294C40.3536 22.9289 40.5808 22.5525 40.7915 22.1658C42.5437 22.3653 44.1777 22.4864 45.663 22.5284C48.2038 22.6001 50.2752 22.4392 51.7496 22.0619C53.2785 21.6706 53.9328 21.1108 54.0748 20.5809C54.2167 20.051 53.93 19.2391 52.8016 18.1357C51.7134 17.0718 50 15.8967 47.7637 14.6885ZM10.371 3.46052C12.4422 3.51903 14.786 3.72712 17.3247 4.08197C16.9638 4.42217 16.6196 4.78008 16.2938 5.1543C14.1281 4.87565 12.1249 4.71055 10.3372 4.66004C7.79635 4.58827 5.72491 4.74919 4.25057 5.12653C2.72165 5.51783 2.06736 6.07761 1.92538 6.60751C1.78339 7.13741 2.07013 7.94934 3.19856 9.05267C4.28671 10.1166 6.00017 11.2917 8.23645 12.5C8.27307 12.5197 8.30982 12.5395 8.3467 12.5593C8.16459 12.6653 8.03703 12.7988 7.96909 12.961C7.87554 13.1842 7.89982 13.45 8.03094 13.7508C7.90796 13.6857 7.78632 13.6207 7.66604 13.5557C5.38632 12.324 3.56248 11.0868 2.35962 9.91069C1.19704 8.77396 0.439066 7.51805 0.766266 6.29693C1.09347 5.0758 2.37784 4.36714 3.95303 3.964C5.5828 3.54688 7.7809 3.38735 10.371 3.46052Z" fill="#8A63D2"/>
    <ellipse cx="7.18787" cy="12.5968" rx="4.10757" ry="0.629046" transform="rotate(29.2824 7.18787 12.5968)" fill="#8A63D2"/>
  </g>
  <!-- Fancy "Neynar UI" text -->
  <defs>
    <linearGradient id="textGradient" x1="0%" y1="0%" x2="100%" y2="0%">
      <stop offset="0%" stop-color="#ffffff"/>
      <stop offset="50%" stop-color="#e9d5ff"/>
      <stop offset="100%" stop-color="#a78bfa"/>
    </linearGradient>
    <style>
      @import url('https://fonts.googleapis.com/css2?family=Outfit:wght@600&amp;display=swap');
    </style>
  </defs>
  <text x="130" y="50" font-family="'Outfit', 'SF Pro Display', system-ui, sans-serif" font-size="44" font-weight="600" letter-spacing="1.5" fill="url(#textGradient)">Neynar UI</text>
</svg>
